<mxfile host="Electron" modified="2024-07-06T02:31:48.767Z" agent="Mozilla/5.0 (X11; Linux x86_64) AppleWebKit/537.36 (KHTML, like Gecko) draw.io/24.6.4 Chrome/124.0.6367.207 Electron/30.0.6 Safari/537.36" etag="_nLoLZkDsk968aEPWO5p" version="24.6.4" type="device">
  <diagram name="Page-1" id="4PrbqG9uzJKidpnqIpOB">
    <mxGraphModel dx="1434" dy="843" grid="1" gridSize="10" guides="1" tooltips="1" connect="1" arrows="1" fold="1" page="1" pageScale="1" pageWidth="827" pageHeight="1169" math="0" shadow="0">
      <root>
        <mxCell id="0" />
        <mxCell id="1" parent="0" />
        <mxCell id="ltK8uoNCg9Owb-ktBX0j-1" value="RMFS" style="swimlane;whiteSpace=wrap;html=1;startSize=39;fontSize=10;" vertex="1" parent="1">
          <mxGeometry x="50" width="624" height="522" as="geometry" />
        </mxCell>
        <mxCell id="ltK8uoNCg9Owb-ktBX0j-2" value="&lt;font color=&quot;#1a3300&quot; style=&quot;font-size: 10px;&quot;&gt;Admin server&lt;/font&gt;" style="shape=umlLifeline;perimeter=lifelinePerimeter;whiteSpace=wrap;html=1;container=0;dropTarget=0;collapsible=0;recursiveResize=0;outlineConnect=0;portConstraint=eastwest;newEdgeStyle={&quot;curved&quot;:0,&quot;rounded&quot;:0};fillColor=#CCE5FF;strokeColor=#001933;fontSize=10;" vertex="1" parent="ltK8uoNCg9Owb-ktBX0j-1">
          <mxGeometry x="70" y="80" width="80" height="448" as="geometry" />
        </mxCell>
        <mxCell id="ltK8uoNCg9Owb-ktBX0j-3" value="" style="html=1;points=[[0,0,0,0,5],[0,1,0,0,-5],[1,0,0,0,5],[1,1,0,0,-5]];perimeter=orthogonalPerimeter;outlineConnect=0;targetShapes=umlLifeline;portConstraint=eastwest;newEdgeStyle={&quot;curved&quot;:0,&quot;rounded&quot;:0};fillColor=#CCE5FF;strokeColor=#003366;fontSize=10;" vertex="1" parent="ltK8uoNCg9Owb-ktBX0j-2">
          <mxGeometry x="30" y="68" width="20" height="332" as="geometry" />
        </mxCell>
        <mxCell id="ltK8uoNCg9Owb-ktBX0j-4" value="&lt;font color=&quot;#1a3300&quot; style=&quot;font-size: 10px;&quot;&gt;Task manager&lt;/font&gt;" style="shape=umlLifeline;perimeter=lifelinePerimeter;whiteSpace=wrap;html=1;container=0;dropTarget=0;collapsible=0;recursiveResize=0;outlineConnect=0;portConstraint=eastwest;newEdgeStyle={&quot;curved&quot;:0,&quot;rounded&quot;:0};fillColor=#CCE5FF;strokeColor=#001933;fontSize=10;" vertex="1" parent="ltK8uoNCg9Owb-ktBX0j-1">
          <mxGeometry x="190" y="80" width="80" height="448" as="geometry" />
        </mxCell>
        <mxCell id="ltK8uoNCg9Owb-ktBX0j-5" value="" style="html=1;points=[[0,0,0,0,5],[0,1,0,0,-5],[1,0,0,0,5],[1,1,0,0,-5]];perimeter=orthogonalPerimeter;outlineConnect=0;targetShapes=umlLifeline;portConstraint=eastwest;newEdgeStyle={&quot;curved&quot;:0,&quot;rounded&quot;:0};fillColor=#CCE5FF;strokeColor=#003366;fontSize=10;" vertex="1" parent="ltK8uoNCg9Owb-ktBX0j-4">
          <mxGeometry x="30" y="80" width="20" height="50" as="geometry" />
        </mxCell>
        <mxCell id="ltK8uoNCg9Owb-ktBX0j-6" value="" style="html=1;points=[[0,0,0,0,5],[0,1,0,0,-5],[1,0,0,0,5],[1,1,0,0,-5]];perimeter=orthogonalPerimeter;outlineConnect=0;targetShapes=umlLifeline;portConstraint=eastwest;newEdgeStyle={&quot;curved&quot;:0,&quot;rounded&quot;:0};fillColor=#CCE5FF;strokeColor=#003366;fontSize=10;" vertex="1" parent="ltK8uoNCg9Owb-ktBX0j-4">
          <mxGeometry x="30" y="370" width="20" height="32" as="geometry" />
        </mxCell>
        <mxCell id="ltK8uoNCg9Owb-ktBX0j-7" value="" style="endArrow=classic;html=1;rounded=0;fontSize=10;" edge="1" parent="ltK8uoNCg9Owb-ktBX0j-4">
          <mxGeometry width="50" height="50" relative="1" as="geometry">
            <mxPoint x="270" y="370" as="sourcePoint" />
            <mxPoint x="50" y="370" as="targetPoint" />
          </mxGeometry>
        </mxCell>
        <mxCell id="ltK8uoNCg9Owb-ktBX0j-8" value="Task Completion" style="edgeLabel;html=1;align=center;verticalAlign=middle;resizable=0;points=[];fontSize=10;" connectable="0" vertex="1" parent="ltK8uoNCg9Owb-ktBX0j-7">
          <mxGeometry x="0.0298" relative="1" as="geometry">
            <mxPoint x="-2" y="-10" as="offset" />
          </mxGeometry>
        </mxCell>
        <mxCell id="ltK8uoNCg9Owb-ktBX0j-9" value="Task state&lt;div style=&quot;font-size: 10px;&quot;&gt;update&lt;/div&gt;" style="html=1;verticalAlign=bottom;endArrow=open;endSize=8;curved=0;rounded=0;labelBackgroundColor=none;fontSize=10;" edge="1" parent="ltK8uoNCg9Owb-ktBX0j-4">
          <mxGeometry relative="1" as="geometry">
            <mxPoint x="30" y="400" as="sourcePoint" />
            <mxPoint x="-70" y="400" as="targetPoint" />
            <mxPoint as="offset" />
          </mxGeometry>
        </mxCell>
        <mxCell id="ltK8uoNCg9Owb-ktBX0j-10" value="&lt;font color=&quot;#1a3300&quot; style=&quot;font-size: 10px;&quot;&gt;Traffic manager&lt;/font&gt;" style="shape=umlLifeline;perimeter=lifelinePerimeter;whiteSpace=wrap;html=1;container=0;dropTarget=0;collapsible=0;recursiveResize=0;outlineConnect=0;portConstraint=eastwest;newEdgeStyle={&quot;curved&quot;:0,&quot;rounded&quot;:0};fillColor=#CCE5FF;strokeColor=#001933;fontSize=10;" vertex="1" parent="ltK8uoNCg9Owb-ktBX0j-1">
          <mxGeometry x="310" y="80" width="80" height="448" as="geometry" />
        </mxCell>
        <mxCell id="ltK8uoNCg9Owb-ktBX0j-11" value="" style="html=1;points=[[0,0,0,0,5],[0,1,0,0,-5],[1,0,0,0,5],[1,1,0,0,-5]];perimeter=orthogonalPerimeter;outlineConnect=0;targetShapes=umlLifeline;portConstraint=eastwest;newEdgeStyle={&quot;curved&quot;:0,&quot;rounded&quot;:0};fillColor=#CCE5FF;strokeColor=#003366;fontSize=10;" vertex="1" parent="ltK8uoNCg9Owb-ktBX0j-10">
          <mxGeometry x="30" y="128" width="20" height="200" as="geometry" />
        </mxCell>
        <mxCell id="ltK8uoNCg9Owb-ktBX0j-12" value="" style="endArrow=classic;html=1;rounded=0;fontSize=10;" edge="1" parent="ltK8uoNCg9Owb-ktBX0j-1" target="ltK8uoNCg9Owb-ktBX0j-3">
          <mxGeometry width="50" height="50" relative="1" as="geometry">
            <mxPoint x="20" y="150" as="sourcePoint" />
            <mxPoint x="116" y="150" as="targetPoint" />
            <Array as="points">
              <mxPoint x="20" y="150" />
            </Array>
          </mxGeometry>
        </mxCell>
        <mxCell id="ltK8uoNCg9Owb-ktBX0j-13" value="Input" style="edgeLabel;html=1;align=center;verticalAlign=middle;resizable=0;points=[];fontSize=10;" connectable="0" vertex="1" parent="ltK8uoNCg9Owb-ktBX0j-12">
          <mxGeometry x="0.5485" y="2" relative="1" as="geometry">
            <mxPoint x="-31" y="2" as="offset" />
          </mxGeometry>
        </mxCell>
        <mxCell id="ltK8uoNCg9Owb-ktBX0j-14" value="" style="endArrow=classic;html=1;rounded=0;exitX=0.96;exitY=0.075;exitDx=0;exitDy=0;exitPerimeter=0;fontSize=10;" edge="1" parent="ltK8uoNCg9Owb-ktBX0j-1">
          <mxGeometry width="50" height="50" relative="1" as="geometry">
            <mxPoint x="120" y="160" as="sourcePoint" />
            <mxPoint x="220" y="160" as="targetPoint" />
          </mxGeometry>
        </mxCell>
        <mxCell id="ltK8uoNCg9Owb-ktBX0j-15" value="Task register" style="edgeLabel;html=1;align=center;verticalAlign=middle;resizable=0;points=[];fontSize=10;" connectable="0" vertex="1" parent="ltK8uoNCg9Owb-ktBX0j-14">
          <mxGeometry x="0.0298" relative="1" as="geometry">
            <mxPoint x="-2" y="-10" as="offset" />
          </mxGeometry>
        </mxCell>
        <mxCell id="ltK8uoNCg9Owb-ktBX0j-16" value="" style="html=1;align=left;spacingLeft=2;endArrow=block;rounded=0;edgeStyle=orthogonalEdgeStyle;curved=0;rounded=0;strokeColor=#000000;fillColor=#dae8fc;fontSize=10;" edge="1" parent="ltK8uoNCg9Owb-ktBX0j-1">
          <mxGeometry relative="1" as="geometry">
            <mxPoint x="240" y="160" as="sourcePoint" />
            <Array as="points">
              <mxPoint x="280" y="160" />
              <mxPoint x="280" y="180" />
            </Array>
            <mxPoint x="240" y="179.99999999999994" as="targetPoint" />
          </mxGeometry>
        </mxCell>
        <mxCell id="ltK8uoNCg9Owb-ktBX0j-17" value="Robot&lt;div style=&quot;font-size: 10px;&quot;&gt;Status&lt;div style=&quot;font-size: 10px;&quot;&gt;Check&lt;/div&gt;&lt;/div&gt;" style="edgeLabel;html=1;align=center;verticalAlign=middle;resizable=0;points=[];fontSize=10;" connectable="0" vertex="1" parent="ltK8uoNCg9Owb-ktBX0j-16">
          <mxGeometry x="-0.4867" relative="1" as="geometry">
            <mxPoint x="36" as="offset" />
          </mxGeometry>
        </mxCell>
        <mxCell id="ltK8uoNCg9Owb-ktBX0j-18" value="" style="endArrow=classic;html=1;rounded=0;fontSize=10;" edge="1" parent="ltK8uoNCg9Owb-ktBX0j-1">
          <mxGeometry width="50" height="50" relative="1" as="geometry">
            <mxPoint x="240" y="188" as="sourcePoint" />
            <mxPoint x="460" y="188" as="targetPoint" />
          </mxGeometry>
        </mxCell>
        <mxCell id="ltK8uoNCg9Owb-ktBX0j-19" value="Task Assign" style="edgeLabel;html=1;align=center;verticalAlign=middle;resizable=0;points=[];fontSize=10;" connectable="0" vertex="1" parent="ltK8uoNCg9Owb-ktBX0j-18">
          <mxGeometry x="0.389" y="-1" relative="1" as="geometry">
            <mxPoint x="13" y="-11" as="offset" />
          </mxGeometry>
        </mxCell>
        <mxCell id="ltK8uoNCg9Owb-ktBX0j-20" value="Task state&lt;div style=&quot;font-size: 10px;&quot;&gt;update&lt;/div&gt;" style="html=1;verticalAlign=bottom;endArrow=open;endSize=8;curved=0;rounded=0;labelBackgroundColor=none;fontSize=10;" edge="1" parent="ltK8uoNCg9Owb-ktBX0j-1">
          <mxGeometry relative="1" as="geometry">
            <mxPoint x="220" y="208" as="sourcePoint" />
            <mxPoint x="120" y="208" as="targetPoint" />
            <mxPoint as="offset" />
          </mxGeometry>
        </mxCell>
        <mxCell id="ltK8uoNCg9Owb-ktBX0j-21" value="" style="endArrow=classic;html=1;rounded=0;fontSize=10;" edge="1" parent="ltK8uoNCg9Owb-ktBX0j-1">
          <mxGeometry width="50" height="50" relative="1" as="geometry">
            <mxPoint x="360" y="307.76" as="sourcePoint" />
            <mxPoint x="460" y="307.76" as="targetPoint" />
          </mxGeometry>
        </mxCell>
        <mxCell id="ltK8uoNCg9Owb-ktBX0j-22" value="Navigate" style="edgeLabel;html=1;align=center;verticalAlign=middle;resizable=0;points=[];fontSize=10;" connectable="0" vertex="1" parent="ltK8uoNCg9Owb-ktBX0j-21">
          <mxGeometry x="0.389" y="-1" relative="1" as="geometry">
            <mxPoint x="-20" y="-1" as="offset" />
          </mxGeometry>
        </mxCell>
        <mxCell id="ltK8uoNCg9Owb-ktBX0j-23" value="Odom &amp;amp; pose" style="html=1;verticalAlign=bottom;endArrow=open;dashed=1;endSize=8;curved=0;rounded=0;fontSize=10;" edge="1" parent="ltK8uoNCg9Owb-ktBX0j-1">
          <mxGeometry relative="1" as="geometry">
            <mxPoint x="458" y="350" as="sourcePoint" />
            <mxPoint x="360" y="350" as="targetPoint" />
            <mxPoint as="offset" />
          </mxGeometry>
        </mxCell>
        <mxCell id="ltK8uoNCg9Owb-ktBX0j-24" value="&lt;font color=&quot;#1a3300&quot; style=&quot;font-size: 10px;&quot;&gt;Robot&lt;/font&gt;" style="shape=umlLifeline;perimeter=lifelinePerimeter;whiteSpace=wrap;html=1;container=0;dropTarget=0;collapsible=0;recursiveResize=0;outlineConnect=0;portConstraint=eastwest;newEdgeStyle={&quot;curved&quot;:0,&quot;rounded&quot;:0};fillColor=#CCE5FF;strokeColor=#001933;fontSize=10;" vertex="1" parent="ltK8uoNCg9Owb-ktBX0j-1">
          <mxGeometry x="430" y="80" width="80" height="448" as="geometry" />
        </mxCell>
        <mxCell id="ltK8uoNCg9Owb-ktBX0j-25" value="" style="html=1;points=[[0,0,0,0,5],[0,1,0,0,-5],[1,0,0,0,5],[1,1,0,0,-5]];perimeter=orthogonalPerimeter;outlineConnect=0;targetShapes=umlLifeline;portConstraint=eastwest;newEdgeStyle={&quot;curved&quot;:0,&quot;rounded&quot;:0};fillColor=#CCE5FF;strokeColor=#003366;fontSize=10;" vertex="1" parent="ltK8uoNCg9Owb-ktBX0j-24">
          <mxGeometry x="30" y="108" width="20" height="262" as="geometry" />
        </mxCell>
        <mxCell id="ltK8uoNCg9Owb-ktBX0j-26" value="" style="html=1;align=left;spacingLeft=2;endArrow=block;rounded=0;edgeStyle=orthogonalEdgeStyle;curved=0;rounded=0;strokeColor=#000000;fillColor=#dae8fc;fontSize=10;" edge="1" parent="ltK8uoNCg9Owb-ktBX0j-1">
          <mxGeometry relative="1" as="geometry">
            <mxPoint x="360" y="258" as="sourcePoint" />
            <Array as="points">
              <mxPoint x="396" y="258" />
              <mxPoint x="396" y="278" />
            </Array>
            <mxPoint x="360" y="278" as="targetPoint" />
          </mxGeometry>
        </mxCell>
        <mxCell id="ltK8uoNCg9Owb-ktBX0j-27" value="Path&lt;div&gt;planning&lt;/div&gt;" style="edgeLabel;html=1;align=center;verticalAlign=middle;resizable=0;points=[];fontSize=10;" connectable="0" vertex="1" parent="ltK8uoNCg9Owb-ktBX0j-26">
          <mxGeometry x="-0.4867" relative="1" as="geometry">
            <mxPoint x="32" y="10" as="offset" />
          </mxGeometry>
        </mxCell>
        <mxCell id="ltK8uoNCg9Owb-ktBX0j-28" value="" style="endArrow=classic;html=1;rounded=0;fontSize=10;" edge="1" parent="ltK8uoNCg9Owb-ktBX0j-1">
          <mxGeometry width="50" height="50" relative="1" as="geometry">
            <mxPoint x="460" y="208" as="sourcePoint" />
            <mxPoint x="360" y="208" as="targetPoint" />
          </mxGeometry>
        </mxCell>
        <mxCell id="ltK8uoNCg9Owb-ktBX0j-29" value="Goal" style="edgeLabel;html=1;align=center;verticalAlign=middle;resizable=0;points=[];fontSize=10;" connectable="0" vertex="1" parent="ltK8uoNCg9Owb-ktBX0j-28">
          <mxGeometry x="0.45" y="1" relative="1" as="geometry">
            <mxPoint x="20" y="-3" as="offset" />
          </mxGeometry>
        </mxCell>
        <mxCell id="ltK8uoNCg9Owb-ktBX0j-30" value="&lt;font style=&quot;font-size: 10px;&quot;&gt;loop&lt;/font&gt;" style="shape=umlFrame;whiteSpace=wrap;html=1;pointerEvents=0;width=40;height=20;" vertex="1" parent="ltK8uoNCg9Owb-ktBX0j-1">
          <mxGeometry x="286" y="228" width="256" height="152" as="geometry" />
        </mxCell>
        <mxCell id="ltK8uoNCg9Owb-ktBX0j-31" value="Goal" style="html=1;verticalAlign=bottom;endArrow=open;dashed=1;endSize=8;curved=0;rounded=0;fontSize=10;" edge="1" parent="ltK8uoNCg9Owb-ktBX0j-1">
          <mxGeometry x="0.04" y="-8" relative="1" as="geometry">
            <mxPoint x="360" y="408" as="sourcePoint" />
            <mxPoint x="460" y="408" as="targetPoint" />
            <mxPoint as="offset" />
          </mxGeometry>
        </mxCell>
        <mxCell id="ltK8uoNCg9Owb-ktBX0j-32" value="" style="html=1;align=left;spacingLeft=2;endArrow=block;rounded=0;edgeStyle=orthogonalEdgeStyle;curved=0;rounded=0;strokeColor=#000000;fillColor=#dae8fc;fontSize=10;" edge="1" parent="ltK8uoNCg9Owb-ktBX0j-1">
          <mxGeometry relative="1" as="geometry">
            <mxPoint x="480" y="318" as="sourcePoint" />
            <Array as="points">
              <mxPoint x="512" y="318" />
              <mxPoint x="512" y="338" />
            </Array>
            <mxPoint x="480" y="338" as="targetPoint" />
          </mxGeometry>
        </mxCell>
        <mxCell id="ltK8uoNCg9Owb-ktBX0j-33" value="SLAM" style="edgeLabel;html=1;align=center;verticalAlign=middle;resizable=0;points=[];fontSize=10;" connectable="0" vertex="1" parent="ltK8uoNCg9Owb-ktBX0j-32">
          <mxGeometry x="-0.4867" relative="1" as="geometry">
            <mxPoint x="8" y="-10" as="offset" />
          </mxGeometry>
        </mxCell>
      </root>
    </mxGraphModel>
  </diagram>
</mxfile>
